<svg width="128" height="158" viewBox="0 0 128 158" fill="none" xmlns="http://www.w3.org/2000/svg">
<g filter="url(#filter0_d_211_194)">
<path d="M119.735 137.851C120.205 137.169 120.033 136.235 119.351 135.765L108.234 128.105C107.552 127.635 106.618 127.807 106.148 128.489C105.678 129.171 105.85 130.106 106.532 130.576L116.414 137.384L109.605 147.266C109.135 147.948 109.307 148.882 109.989 149.352C110.671 149.822 111.605 149.65 112.076 148.968L119.735 137.851ZM3.61685 1C2.13263 0.782957 2.13246 0.784166 2.13219 0.785989C2.13198 0.787417 2.13163 0.789857 2.13122 0.792708C2.13039 0.798413 2.12922 0.806565 2.12771 0.817143C2.12468 0.838299 2.12031 0.869161 2.11467 0.909563C2.10339 0.990367 2.08705 1.10933 2.06637 1.26513C2.02501 1.57672 1.96626 2.03566 1.89582 2.63132C1.75493 3.82257 1.56719 5.56094 1.37808 7.7612C0.999924 12.161 0.615958 18.4118 0.590787 25.8308C0.540493 40.6545 1.92196 60.2105 7.68689 79.0024C13.4519 97.7947 23.6398 115.943 41.2854 127.754C58.9545 139.581 83.8712 144.901 118.772 138.475L118.228 135.525C83.8787 141.849 59.8101 136.544 42.9542 125.261C26.0749 113.963 16.1982 96.5178 10.555 78.1226C4.9116 59.727 3.54103 40.5017 3.59077 25.841C3.61562 18.5179 3.99468 12.3507 4.36706 8.0181C4.55322 5.85215 4.73762 4.14569 4.87505 2.98367C4.94376 2.40269 5.00073 1.95789 5.04028 1.65989C5.06006 1.51089 5.07549 1.3986 5.08585 1.32435C5.09104 1.28722 5.09495 1.25961 5.09752 1.24167C5.0988 1.2327 5.09974 1.22615 5.10034 1.22204C5.10064 1.21998 5.10082 1.21873 5.10097 1.2177C5.10106 1.21707 5.10106 1.21704 3.61685 1Z" fill="white"/>
</g>
<defs>
<filter id="filter0_d_211_194" x="0.589478" y="0.785675" width="127.411" height="156.831" filterUnits="userSpaceOnUse" color-interpolation-filters="sRGB">
<feFlood flood-opacity="0" result="BackgroundImageFix"/>
<feColorMatrix in="SourceAlpha" type="matrix" values="0 0 0 0 0 0 0 0 0 0 0 0 0 0 0 0 0 0 127 0" result="hardAlpha"/>
<feOffset dx="4" dy="4"/>
<feGaussianBlur stdDeviation="2"/>
<feComposite in2="hardAlpha" operator="out"/>
<feColorMatrix type="matrix" values="0 0 0 0 0 0 0 0 0 0 0 0 0 0 0 0 0 0 0.5 0"/>
<feBlend mode="normal" in2="BackgroundImageFix" result="effect1_dropShadow_211_194"/>
<feBlend mode="normal" in="SourceGraphic" in2="effect1_dropShadow_211_194" result="shape"/>
</filter>
</defs>
</svg>
