<svg width="91" height="11" viewBox="0 0 91 11" fill="none" xmlns="http://www.w3.org/2000/svg">
<path d="M0 8.71836C0 7.74641 1.07612 7.04175 3.22836 6.60437C5.38061 6.167 7.83709 5.93373 10.5978 5.90457V5.61299C10.5978 5.16589 10.3387 4.85001 9.82031 4.66534C9.30197 4.48067 8.5808 4.38834 7.6568 4.38834C7.00324 4.38834 6.42292 4.42964 5.91585 4.51226C5.42005 4.59002 4.98622 4.68235 4.61436 4.78926C4.25378 4.89132 3.927 4.9958 3.63402 5.10272C3.11568 5.29711 2.68749 5.30683 2.34944 5.13188L0.946536 4.38834C0.597219 4.20367 0.681731 4.01414 1.20007 3.81975C1.59446 3.6691 2.05083 3.53788 2.56917 3.42611C3.09878 3.31434 3.79741 3.20985 4.66507 3.11266C5.53273 3.0106 6.65956 2.95958 8.04556 2.95958C10.3894 2.95958 12.1867 3.19284 13.4374 3.65938C14.6995 4.12591 15.3305 4.81356 15.3305 5.72233V10.3221C15.3305 10.6137 14.9925 10.7594 14.3164 10.7594H11.5444C10.9359 10.7594 10.6316 10.6137 10.6316 10.3221V10.1034H10.5978C9.93299 10.3804 9.13295 10.5845 8.19768 10.7157C7.27368 10.8421 6.42292 10.9052 5.64541 10.9052C3.79741 10.9052 2.39451 10.7108 1.43671 10.3221C0.478902 9.92843 0 9.39386 0 8.71836ZM5.00312 8.67462C5.00312 8.84471 5.082 8.99293 5.23975 9.11928C5.39751 9.24078 5.64541 9.33068 5.98346 9.389C6.32151 9.44732 6.699 9.47647 7.11592 9.47647C7.69061 9.47647 8.24839 9.44246 8.78926 9.37442C9.33014 9.30638 9.93299 9.14601 10.5978 8.89331V7.31146C8.70475 7.4038 7.43707 7.52286 6.79478 7.66865C6.15248 7.81445 5.69049 7.9651 5.40878 8.12061C5.13834 8.27612 5.00312 8.46079 5.00312 8.67462Z" fill="white"/>
<path d="M20.959 10.7594C20.2829 10.7594 19.9449 10.6137 19.9449 10.3221V0.437376C19.9449 0.145792 20.2829 0 20.959 0H23.6634C24.3395 0 24.6775 0.145792 24.6775 0.437376V3.38237C24.6775 3.57676 24.655 3.77115 24.6099 3.96554H24.6775C25.2635 3.5476 25.9171 3.27546 26.6382 3.14911C27.3594 3.02275 28.2271 2.95958 29.2412 2.95958C31.8893 2.95958 33.7485 3.35564 34.819 4.14778C35.9008 4.93506 36.4416 5.86327 36.4416 6.93241C36.4416 8.00155 35.9008 8.93219 34.819 9.72432C33.7485 10.5116 31.8893 10.9052 29.2412 10.9052C28.2271 10.9052 27.3594 10.8421 26.6382 10.7157C25.9171 10.5894 25.2635 10.3172 24.6775 9.89927H24.6099L24.5423 10.3221C24.4973 10.6137 24.193 10.7594 23.6296 10.7594H20.959ZM24.6775 7.26044C24.6775 7.9165 24.9762 8.45107 25.5734 8.86415C26.1819 9.27237 26.9087 9.47647 27.7538 9.47647C29.275 9.47647 30.2666 9.24807 30.7286 8.79125C31.2019 8.32958 31.4385 7.70996 31.4385 6.93241C31.4385 6.15485 31.2019 5.53766 30.7286 5.08085C30.2666 4.61917 29.275 4.38834 27.7538 4.38834C26.9087 4.38834 26.1819 4.59488 25.5734 5.00795C24.9762 5.41617 24.6775 5.94831 24.6775 6.60437V7.26044Z" fill="white"/>
<path d="M39.146 6.93241C39.146 5.69317 39.8841 4.72123 41.3602 4.01657C42.8477 3.31191 45.0562 2.95958 47.986 2.95958C50.9158 2.95958 53.1187 3.31191 54.5949 4.01657C56.0823 4.72123 56.826 5.69317 56.826 6.93241C56.826 8.17164 56.0823 9.14358 54.5949 9.84824C53.1187 10.5529 50.9158 10.9052 47.986 10.9052C45.0562 10.9052 42.8477 10.5529 41.3602 9.84824C39.8841 9.14358 39.146 8.17164 39.146 6.93241ZM44.1492 6.93241C44.1492 7.85575 44.4759 8.51182 45.1295 8.9006C45.7943 9.28452 46.7465 9.47647 47.986 9.47647C49.2255 9.47647 50.1721 9.28452 50.8256 8.9006C51.4904 8.51182 51.8229 7.85575 51.8229 6.93241C51.8229 6.00906 51.4904 5.35542 50.8256 4.9715C50.1721 4.58273 49.2255 4.38834 47.986 4.38834C46.7465 4.38834 45.7943 4.58273 45.1295 4.9715C44.4759 5.35542 44.1492 6.00906 44.1492 6.93241Z" fill="white"/>
<path d="M60.4431 7.58118V3.54274C60.4431 3.25116 60.7811 3.10537 61.4572 3.10537H64.1616C64.8377 3.10537 65.1758 3.25116 65.1758 3.54274V7.05633C65.1758 8.11575 65.3448 8.78396 65.6828 9.06097C66.0209 9.33797 66.7308 9.47647 67.8126 9.47647C68.9619 9.47647 69.8352 9.27966 70.4324 8.88602C71.0296 8.48752 71.3283 7.66379 71.3283 6.41484V3.54274C71.3283 3.25116 71.6663 3.10537 72.3424 3.10537H75.0468C75.7229 3.10537 76.0609 3.25116 76.0609 3.54274V10.3221C76.0609 10.6137 75.7229 10.7594 75.0468 10.7594H72.3762C71.7001 10.7594 71.3621 10.6137 71.3621 10.3221V9.89927H71.2945C70.7761 10.2832 70.1169 10.548 69.3169 10.6938C68.5168 10.8348 67.5703 10.9052 66.4773 10.9052C64.7532 10.9052 63.3165 10.6671 62.1671 10.1909C61.0178 9.7146 60.4431 8.84471 60.4431 7.58118Z" fill="white"/>
<path d="M80.0668 4.56329C79.402 4.56329 79.0696 4.44179 79.0696 4.19881V3.46985C79.0696 3.22686 79.402 3.10537 80.0668 3.10537H81.2162V2.85023C81.2162 2.63154 81.3345 2.4323 81.5711 2.25249L82.8726 1.26839C83.1205 1.08372 83.4135 0.991385 83.7515 0.991385H84.9347C85.6108 0.991385 85.9489 1.13718 85.9489 1.42876V3.10537H88.6871C89.3519 3.10537 89.6843 3.22686 89.6843 3.46985V4.19881C89.6843 4.44179 89.3519 4.56329 88.6871 4.56329H85.9489V8.17893C85.9489 8.67462 86.0277 9.03181 86.1855 9.2505C86.3545 9.46432 86.7827 9.57124 87.4701 9.57124C87.8194 9.57124 88.2138 9.54694 88.6533 9.49834C89.0927 9.44489 89.4364 9.39386 89.6843 9.34526C90.0787 9.26751 90.3379 9.32339 90.4618 9.51292L90.9689 10.3439C91.0703 10.5092 90.9238 10.6307 90.5294 10.7084C90.1576 10.7813 89.6449 10.8469 88.9913 10.9052C88.349 10.9684 87.7011 11 87.0475 11C85.4362 11 84.0614 10.8566 82.9233 10.5699C81.7852 10.2832 81.2162 9.69273 81.2162 8.79854V4.56329H80.0668Z" fill="white"/>
</svg>
