<svg width="104" height="10" viewBox="0 0 104 10" fill="none" xmlns="http://www.w3.org/2000/svg">
<path d="M0 5.93591C0 4.69774 0.619061 3.72663 1.85718 3.02258C3.09531 2.31852 4.99602 1.9665 7.55932 1.9665C9.05861 1.9665 10.2242 2.06604 11.056 2.26511C11.8879 2.46419 12.5553 2.75552 13.0583 3.13911C13.3582 3.36732 13.3098 3.54698 12.9132 3.67808L11.3753 4.18791C10.94 4.33358 10.5579 4.27774 10.229 4.02039C10.0646 3.89415 9.75022 3.75819 9.28592 3.61253C8.82162 3.46686 8.24609 3.39403 7.55932 3.39403C6.46629 3.39403 5.64893 3.58825 5.10726 3.97669C4.56558 4.36028 4.29474 5.01335 4.29474 5.93591C4.29474 6.85846 4.56558 7.51396 5.10726 7.9024C5.64893 8.28599 6.46629 8.47779 7.55932 8.47779C8.34282 8.47779 8.97639 8.39524 9.46003 8.23015C9.94367 8.06506 10.3983 7.85142 10.8239 7.58922C11.1915 7.36587 11.5784 7.3343 11.9846 7.49454L13.334 8.02622C13.7403 8.18645 13.7644 8.4001 13.4065 8.66715C13.0293 8.94877 12.3861 9.22554 11.4768 9.49745C10.5772 9.76936 9.27141 9.90532 7.55932 9.90532C4.99602 9.90532 3.09531 9.55329 1.85718 8.84924C0.619061 8.14518 0 7.17407 0 5.93591Z" fill="white"/>
<path d="M15.757 5.93591C15.757 4.69774 16.3906 3.72663 17.6578 3.02258C18.9346 2.31852 20.8304 1.9665 23.3454 1.9665C25.8603 1.9665 27.7514 2.31852 29.0185 3.02258C30.2953 3.72663 30.9337 4.69774 30.9337 5.93591C30.9337 7.17407 30.2953 8.14518 29.0185 8.84924C27.7514 9.55329 25.8603 9.90532 23.3454 9.90532C20.8304 9.90532 18.9346 9.55329 17.6578 8.84924C16.3906 8.14518 15.757 7.17407 15.757 5.93591ZM20.0518 5.93591C20.0518 6.85846 20.3323 7.51396 20.8933 7.9024C21.464 8.28599 22.2814 8.47779 23.3454 8.47779C24.4094 8.47779 25.2219 8.28599 25.7829 7.9024C26.3536 7.51396 26.639 6.85846 26.639 5.93591C26.639 5.01335 26.3536 4.36028 25.7829 3.97669C25.2219 3.58825 24.4094 3.39403 23.3454 3.39403C22.2814 3.39403 21.464 3.58825 20.8933 3.97669C20.3323 4.36028 20.0518 5.01335 20.0518 5.93591Z" fill="white"/>
<path d="M34.9383 9.75965C34.3579 9.75965 34.0677 9.61398 34.0677 9.32265V2.54916C34.0677 2.25783 34.3579 2.11216 34.9383 2.11216H37.2307C37.8111 2.11216 38.1013 2.25783 38.1013 2.54916V2.9716H38.1593C38.6043 2.58801 39.1701 2.32581 39.8569 2.185C40.5437 2.03933 41.3707 1.9665 42.338 1.9665C43.847 1.9665 45.0947 2.20442 46.0814 2.68026C47.068 3.15611 47.5613 4.02525 47.5613 5.28769V9.32265C47.5613 9.61398 47.2711 9.75965 46.6908 9.75965H44.3693C43.7889 9.75965 43.4987 9.61398 43.4987 9.32265V5.81209C43.4987 4.75358 43.3536 4.08594 43.0635 3.80918C42.7733 3.53241 42.1494 3.39403 41.1918 3.39403C40.1761 3.39403 39.412 3.59311 38.8993 3.99126C38.3866 4.38456 38.1303 5.20515 38.1303 6.45302V9.32265C38.1303 9.61398 37.8401 9.75965 37.2598 9.75965H34.9383Z" fill="white"/>
<path d="M50.971 3.56883C50.4003 3.56883 50.1149 3.44744 50.1149 3.20466V2.47633C50.1149 2.23355 50.4003 2.11216 50.971 2.11216H51.9576V1.85725C51.9576 1.63875 52.0592 1.43967 52.2623 1.26001L53.3795 0.276766C53.5923 0.0922554 53.8438 0 54.134 0H55.1497C55.73 0 56.0202 0.145666 56.0202 0.436999V2.11216H58.3707C58.9414 2.11216 59.2268 2.23355 59.2268 2.47633V3.20466C59.2268 3.44744 58.9414 3.56883 58.3707 3.56883H56.0202V7.18135C56.0202 7.67662 56.0879 8.0335 56.2233 8.252C56.3684 8.46565 56.736 8.57247 57.326 8.57247C57.6259 8.57247 57.9645 8.54819 58.3417 8.49964C58.7189 8.44623 59.014 8.39524 59.2268 8.34669C59.5653 8.269 59.7878 8.32484 59.8942 8.5142L60.3295 9.3445C60.4165 9.50959 60.2908 9.63098 59.9522 9.70867C59.633 9.7815 59.1929 9.84705 58.6319 9.90532C58.0805 9.96844 57.5243 10 56.9633 10C55.5801 10 54.4 9.85676 53.4231 9.57028C52.4461 9.28381 51.9576 8.69386 51.9576 7.80044V3.56883H50.971Z" fill="white"/>
<path d="M62.2447 7.72032C62.2447 6.74921 63.1684 6.04516 65.0159 5.60816C66.8635 5.17116 68.9721 4.93809 71.342 4.90896V4.61763C71.342 4.17092 71.1195 3.8553 70.6746 3.67079C70.2296 3.48628 69.6105 3.39403 68.8174 3.39403C68.2563 3.39403 67.7582 3.4353 67.3229 3.51784C66.8973 3.59553 66.5249 3.68779 66.2057 3.79461C65.8962 3.89658 65.6157 4.00097 65.3642 4.10779C64.9192 4.30201 64.5517 4.31173 64.2615 4.13693L63.0572 3.39403C62.7573 3.20952 62.8299 3.02015 63.2748 2.82593C63.6134 2.67541 64.0051 2.54431 64.4501 2.43263C64.9047 2.32095 65.5044 2.21656 66.2492 2.11945C66.994 2.01748 67.9613 1.9665 69.1511 1.9665C71.163 1.9665 72.7058 2.19956 73.7795 2.6657C74.8629 3.13183 75.4046 3.81889 75.4046 4.72688V9.32265C75.4046 9.61398 75.1144 9.75965 74.534 9.75965H72.1545C71.6322 9.75965 71.371 9.61398 71.371 9.32265V9.10415H71.342C70.7713 9.38092 70.0845 9.58485 69.2817 9.71595C68.4885 9.84219 67.7582 9.90532 67.0908 9.90532C65.5044 9.90532 64.3002 9.71109 63.478 9.32265C62.6558 8.92935 62.2447 8.39524 62.2447 7.72032ZM66.5394 7.67662C66.5394 7.84656 66.6071 7.99466 66.7425 8.1209C66.878 8.24229 67.0908 8.33212 67.381 8.39039C67.6711 8.44865 67.9952 8.47779 68.3531 8.47779C68.8464 8.47779 69.3252 8.4438 69.7895 8.37582C70.2538 8.30784 70.7713 8.14761 71.342 7.89512V6.31464C69.7169 6.40689 68.6288 6.52586 68.0774 6.67152C67.526 6.81719 67.1295 6.96771 66.8876 7.12309C66.6555 7.27847 66.5394 7.46298 66.5394 7.67662Z" fill="white"/>
<path d="M78.5531 5.93591C78.5531 4.69774 79.1721 3.72663 80.4103 3.02258C81.6484 2.31852 83.5491 1.9665 86.1124 1.9665C87.6117 1.9665 88.7773 2.06604 89.6091 2.26511C90.441 2.46419 91.1084 2.75552 91.6114 3.13911C91.9113 3.36732 91.8629 3.54698 91.4663 3.67808L89.9283 4.18791C89.493 4.33358 89.111 4.27774 88.7821 4.02039C88.6177 3.89415 88.3033 3.75819 87.839 3.61253C87.3747 3.46686 86.7992 3.39403 86.1124 3.39403C85.0194 3.39403 84.202 3.58825 83.6603 3.97669C83.1187 4.36028 82.8478 5.01335 82.8478 5.93591C82.8478 6.85846 83.1187 7.51396 83.6603 7.9024C84.202 8.28599 85.0194 8.47779 86.1124 8.47779C86.8959 8.47779 87.5295 8.39524 88.0131 8.23015C88.4967 8.06506 88.9514 7.85142 89.377 7.58922C89.7445 7.36587 90.1315 7.3343 90.5377 7.49454L91.8871 8.02622C92.2933 8.18645 92.3175 8.4001 91.9596 8.66715C91.5824 8.94877 90.9391 9.22554 90.0299 9.49745C89.1303 9.76936 87.8245 9.90532 86.1124 9.90532C83.5491 9.90532 81.6484 9.55329 80.4103 8.84924C79.1721 8.14518 78.5531 7.17407 78.5531 5.93591Z" fill="white"/>
<path d="M94.6148 3.56883C94.0441 3.56883 93.7588 3.44744 93.7588 3.20466V2.47633C93.7588 2.23355 94.0441 2.11216 94.6148 2.11216H95.6014V1.85725C95.6014 1.63875 95.703 1.43967 95.9061 1.26001L97.0234 0.276766C97.2362 0.0922554 97.4876 0 97.7778 0H98.7935C99.3739 0 99.664 0.145666 99.664 0.436999V2.11216H102.015C102.585 2.11216 102.871 2.23355 102.871 2.47633V3.20466C102.871 3.44744 102.585 3.56883 102.015 3.56883H99.664V7.18135C99.664 7.67662 99.7318 8.0335 99.8672 8.252C100.012 8.46565 100.38 8.57247 100.97 8.57247C101.27 8.57247 101.608 8.54819 101.986 8.49964C102.363 8.44623 102.658 8.39524 102.871 8.34669C103.209 8.269 103.432 8.32484 103.538 8.5142L103.973 9.3445C104.06 9.50959 103.935 9.63098 103.596 9.70867C103.277 9.7815 102.837 9.84705 102.276 9.90532C101.724 9.96844 101.168 10 100.607 10C99.2239 10 98.0438 9.85676 97.0669 9.57028C96.0899 9.28381 95.6014 8.69386 95.6014 7.80044V3.56883H94.6148Z" fill="white"/>
</svg>
