<svg width="90" height="11" viewBox="0 0 90 11" fill="none" xmlns="http://www.w3.org/2000/svg">
<path d="M1.05634 10.8529C0.352113 10.8529 0 10.7059 0 10.4118V0.441177C0 0.147059 0.352113 0 1.05634 0H3.87324C4.57747 0 4.92958 0.147059 4.92958 0.441177V3.41176C4.92958 3.60784 4.9061 3.80392 4.85916 4H4.96479C5.50469 3.61275 6.19131 3.34804 7.02465 3.20588C7.85798 3.05882 8.8615 2.98529 10.0352 2.98529C11.8662 2.98529 13.3803 3.22549 14.5775 3.70588C15.7746 4.18627 16.3732 5.06373 16.3732 6.33824V10.4118C16.3732 10.7059 16.0211 10.8529 15.3169 10.8529H12.5C11.7958 10.8529 11.4437 10.7059 11.4437 10.4118V6.86765C11.4437 5.79902 11.2676 5.125 10.9155 4.84559C10.5634 4.56618 9.80634 4.42647 8.64437 4.42647C7.41197 4.42647 6.48474 4.62745 5.86268 5.02941C5.24061 5.42647 4.92958 6.2549 4.92958 7.51471V10.4118C4.92958 10.7059 4.57747 10.8529 3.87324 10.8529H1.05634Z" fill="white"/>
<path d="M20.1408 6.99265C20.1408 5.74265 20.9096 4.76226 22.4472 4.05147C23.9965 3.34069 26.2969 2.98529 29.3486 2.98529C32.4002 2.98529 34.6948 3.34069 36.2324 4.05147C37.7817 4.76226 38.5563 5.74265 38.5563 6.99265C38.5563 8.24265 37.7817 9.22304 36.2324 9.93382C34.6948 10.6446 32.4002 11 29.3486 11C26.2969 11 23.9965 10.6446 22.4472 9.93382C20.9096 9.22304 20.1408 8.24265 20.1408 6.99265ZM25.3521 6.99265C25.3521 7.92402 25.6925 8.58578 26.3732 8.97794C27.0657 9.3652 28.0575 9.55882 29.3486 9.55882C30.6397 9.55882 31.6256 9.3652 32.3063 8.97794C32.9988 8.58578 33.3451 7.92402 33.3451 6.99265C33.3451 6.06128 32.9988 5.40196 32.3063 5.01471C31.6256 4.62255 30.6397 4.42647 29.3486 4.42647C28.0575 4.42647 27.0657 4.62255 26.3732 5.01471C25.6925 5.40196 25.3521 6.06128 25.3521 6.99265Z" fill="white"/>
<path d="M43.4155 10.8529C42.7113 10.8529 42.3592 10.7059 42.3592 10.4118V3.57353C42.3592 3.27941 42.7113 3.13235 43.4155 3.13235H46.1972C46.9014 3.13235 47.2535 3.27941 47.2535 3.57353V4H47.3239C47.6643 3.68627 48.2394 3.43873 49.0493 3.25735C49.8592 3.07598 50.6162 2.98529 51.3204 2.98529C52.7289 2.98529 53.8204 3.12255 54.5951 3.39706C55.3815 3.67157 55.9214 3.97794 56.2148 4.31618H56.2852C57.3063 3.76226 58.2277 3.40196 59.0493 3.23529C59.8826 3.06863 60.9448 2.98529 62.2359 2.98529C63.973 2.98529 65.4343 3.22549 66.6197 3.70588C67.8169 4.18627 68.4155 5.06373 68.4155 6.33824V10.4118C68.4155 10.7059 68.0634 10.8529 67.3592 10.8529H64.5423C63.838 10.8529 63.4859 10.7059 63.4859 10.4118V6.86765C63.4859 5.79902 63.3099 5.125 62.9577 4.84559C62.6174 4.56618 62.007 4.42647 61.1268 4.42647C60.3052 4.42647 59.554 4.62745 58.8732 5.02941C58.1925 5.43137 57.8521 6.2598 57.8521 7.51471V10.4118C57.8521 10.7059 57.5 10.8529 56.7958 10.8529H53.9789C53.2746 10.8529 52.9225 10.7059 52.9225 10.4118V6.86765C52.9225 5.79902 52.7465 5.125 52.3944 4.84559C52.054 4.56618 51.4437 4.42647 50.5634 4.42647C49.7418 4.42647 48.9906 4.62745 48.3099 5.02941C47.6291 5.42647 47.2887 6.2549 47.2887 7.51471V10.4118C47.2887 10.7059 46.9366 10.8529 46.2324 10.8529H43.4155Z" fill="white"/>
<path d="M72.1831 6.99265C72.1831 5.75245 72.9225 4.77451 74.4014 4.05882C75.892 3.34314 77.993 2.98529 80.7042 2.98529C83.8498 2.98529 86.1854 3.32353 87.7113 4C89.2371 4.67647 90 5.76471 90 7.26471C90 7.55882 89.6714 7.70588 89.0141 7.70588H77.3944C77.5822 8.51961 78.0634 9.03186 78.838 9.24265C79.6127 9.45343 80.5106 9.55882 81.5317 9.55882C82.5059 9.55882 83.2512 9.5049 83.7676 9.39706C84.284 9.28922 84.7183 9.14216 85.0704 8.95588C85.4695 8.7402 85.9624 8.70588 86.5493 8.85294L88.3099 9.30147C89.0023 9.47794 89.1021 9.68873 88.6092 9.93382C87.8932 10.2917 87.054 10.5588 86.0916 10.7353C85.1291 10.9118 83.6092 11 81.5317 11C78.1631 11 75.7629 10.6422 74.331 9.92647C72.8991 9.21078 72.1831 8.23284 72.1831 6.99265ZM77.412 6.23529H85.0704C85.0704 5.70588 84.7535 5.27451 84.1197 4.94118C83.4859 4.60294 82.4765 4.43382 81.0916 4.43382C79.9883 4.43382 79.1139 4.59559 78.4683 4.91912C77.8228 5.23775 77.4707 5.67647 77.412 6.23529Z" fill="white"/>
</svg>
