<svg width="108" height="14" viewBox="0 0 108 14" fill="none" xmlns="http://www.w3.org/2000/svg">
<path d="M0.849948 13.8504C0.283316 13.8504 0 13.7009 0 13.4017V3.45513C0 3.15598 0.283316 3.00641 0.849948 3.00641H3.08814C3.56034 3.00641 3.81532 3.15598 3.8531 3.45513L3.90976 3.88889H3.96642C4.4575 3.46011 5.00525 3.18091 5.60965 3.05128C6.21406 2.92165 6.94124 2.85684 7.79119 2.85684C10.0105 2.85684 11.5687 3.26318 12.4659 4.07585C13.3725 4.88355 13.8258 5.83583 13.8258 6.93269C13.8258 8.02956 13.3725 8.98433 12.4659 9.79701C11.5687 10.6047 10.0105 11.0085 7.79119 11.0085C6.94124 11.0085 6.21406 10.9437 5.60965 10.8141C5.00525 10.6845 4.4575 10.4053 3.96642 9.9765H3.90976C3.94753 10.1759 3.96642 10.3754 3.96642 10.5748V13.4017C3.96642 13.7009 3.68311 13.8504 3.11647 13.8504H0.849948ZM3.96642 7.26923C3.96642 7.94231 4.21668 8.49074 4.71721 8.91453C5.22718 9.33333 5.83631 9.54274 6.5446 9.54274C7.81952 9.54274 8.65058 9.3084 9.03778 8.83974C9.43442 8.3661 9.63274 7.73041 9.63274 6.93269C9.63274 6.13497 9.43442 5.50178 9.03778 5.03312C8.65058 4.55947 7.81952 4.32265 6.5446 4.32265C5.83631 4.32265 5.22718 4.53454 4.71721 4.95833C4.21668 5.37714 3.96642 5.92308 3.96642 6.59615V7.26923Z" fill="white"/>
<path d="M17.7356 10.859C17.1689 10.859 16.8856 10.7094 16.8856 10.4103V3.45513C16.8856 3.15598 17.1689 3.00641 17.7356 3.00641H19.9738C20.5404 3.00641 20.8237 3.15598 20.8237 3.45513V4.06838H20.8804C21.1259 3.74929 21.5367 3.46759 22.1128 3.22329C22.6889 2.97899 23.3688 2.85684 24.1527 2.85684C24.691 2.85684 25.1348 2.89174 25.4843 2.96154C25.8148 3.02635 25.9423 3.14601 25.8667 3.32051L25.4701 4.21047C25.3851 4.4099 25.1301 4.46973 24.7051 4.38996C24.4596 4.34509 24.2235 4.32265 23.9969 4.32265C23.0902 4.32265 22.3395 4.60933 21.7445 5.18269C21.1495 5.75605 20.852 6.59117 20.852 7.68803V10.4103C20.852 10.7094 20.5687 10.859 20.0021 10.859H17.7356Z" fill="white"/>
<path d="M27.2267 6.93269C27.2267 5.66132 27.8452 4.66417 29.0824 3.94124C30.329 3.2183 32.18 2.85684 34.6354 2.85684C37.0908 2.85684 38.937 3.2183 40.1742 3.94124C41.4208 4.66417 42.0441 5.66132 42.0441 6.93269C42.0441 8.20406 41.4208 9.20121 40.1742 9.92415C38.937 10.6471 37.0908 11.0085 34.6354 11.0085C32.18 11.0085 30.329 10.6471 29.0824 9.92415C27.8452 9.20121 27.2267 8.20406 27.2267 6.93269ZM31.4197 6.93269C31.4197 7.87999 31.6936 8.55306 32.2413 8.95192C32.7985 9.3458 33.5965 9.54274 34.6354 9.54274C35.6742 9.54274 36.4675 9.3458 37.0152 8.95192C37.5724 8.55306 37.851 7.87999 37.851 6.93269C37.851 5.9854 37.5724 5.31482 37.0152 4.92094C36.4675 4.52208 35.6742 4.32265 34.6354 4.32265C33.5965 4.32265 32.7985 4.52208 32.2413 4.92094C31.6936 5.31482 31.4197 5.9854 31.4197 6.93269Z" fill="white"/>
<path d="M42.1574 13.9177C41.7985 13.8828 41.6616 13.7532 41.7466 13.5288L42.0582 12.7062C42.1432 12.4769 42.384 12.4021 42.7807 12.4818C42.9507 12.5167 43.2907 12.5342 43.8006 12.5342C44.3956 12.5342 44.8064 12.3697 45.0331 12.0406C45.2597 11.7115 45.373 11.2528 45.373 10.6645V3.45513C45.373 3.15598 45.6563 3.00641 46.223 3.00641H48.4895C49.0561 3.00641 49.3395 3.15598 49.3395 3.45513V10.8889C49.3395 12.1254 48.8814 12.953 47.9654 13.3718C47.0493 13.7906 45.8263 14 44.2964 14C43.4465 14 42.7335 13.9726 42.1574 13.9177ZM46.223 1.8547C45.6563 1.8547 45.373 1.70513 45.373 1.40598V0.448718C45.373 0.149573 45.6563 0 46.223 0H48.4895C49.0561 0 49.3395 0.149573 49.3395 0.448718V1.40598C49.3395 1.70513 49.0561 1.8547 48.4895 1.8547H46.223Z" fill="white"/>
<path d="M52.2718 6.93269C52.2718 5.6713 52.8667 4.67664 54.0567 3.94872C55.256 3.2208 56.9465 2.85684 59.128 2.85684C61.659 2.85684 63.5383 3.20085 64.766 3.88889C65.9937 4.57692 66.6076 5.68376 66.6076 7.2094C66.6076 7.50855 66.3431 7.65812 65.8143 7.65812H56.4648C56.6159 8.48575 57.0031 9.00677 57.6264 9.22115C58.2497 9.43554 58.9722 9.54274 59.7938 9.54274C60.5776 9.54274 61.1773 9.48789 61.5929 9.37821C62.0084 9.26852 62.3578 9.11895 62.6411 8.92949C62.9622 8.71011 63.3589 8.67521 63.8311 8.82479L65.2476 9.28098C65.8048 9.46047 65.8851 9.67486 65.4885 9.92415C64.9124 10.2881 64.2371 10.5598 63.4627 10.7393C62.6884 10.9188 61.4654 11.0085 59.7938 11.0085C57.0834 11.0085 55.1521 10.6446 54 9.91667C52.8478 9.18875 52.2718 8.19409 52.2718 6.93269ZM56.479 6.16239H62.6411C62.6411 5.62393 62.3861 5.18519 61.8762 4.84615C61.3662 4.50214 60.554 4.33013 59.4397 4.33013C58.5519 4.33013 57.8484 4.49466 57.329 4.82372C56.8095 5.14779 56.5262 5.59402 56.479 6.16239Z" fill="white"/>
<path d="M68.9024 6.93269C68.9024 5.66132 69.5068 4.66417 70.7156 3.94124C71.9244 3.2183 73.7802 2.85684 76.2828 2.85684C77.7466 2.85684 78.8846 2.95905 79.6967 3.16346C80.5089 3.36788 81.1605 3.66702 81.6516 4.0609C81.9444 4.29523 81.8972 4.4797 81.51 4.61432L80.0084 5.13782C79.5834 5.28739 79.2104 5.23006 78.8893 4.96581C78.7288 4.83618 78.4218 4.69658 77.9685 4.54701C77.5152 4.39744 76.9533 4.32265 76.2828 4.32265C75.2156 4.32265 74.4176 4.52208 73.8888 4.92094C73.3599 5.31482 73.0955 5.9854 73.0955 6.93269C73.0955 7.87999 73.3599 8.55306 73.8888 8.95192C74.4176 9.3458 75.2156 9.54274 76.2828 9.54274C77.0477 9.54274 77.6663 9.45798 78.1385 9.28846C78.6107 9.11895 79.0546 8.89957 79.4701 8.63034C79.829 8.401 80.2067 8.36859 80.6034 8.53312L81.9208 9.07906C82.3174 9.24359 82.341 9.46296 81.9916 9.73718C81.6233 10.0264 80.9953 10.3105 80.1076 10.5897C79.2293 10.8689 77.9544 11.0085 76.2828 11.0085C73.7802 11.0085 71.9244 10.6471 70.7156 9.92415C69.5068 9.20121 68.9024 8.20406 68.9024 6.93269Z" fill="white"/>
<path d="M84.5839 4.50214C84.0268 4.50214 83.7482 4.37749 83.7482 4.12821V3.38034C83.7482 3.13105 84.0268 3.00641 84.5839 3.00641H85.5472V2.74466C85.5472 2.5203 85.6464 2.31588 85.8447 2.13141L86.9355 1.12179C87.1432 0.932336 87.3888 0.837607 87.6721 0.837607H88.6637C89.2303 0.837607 89.5136 0.98718 89.5136 1.28632V3.00641H91.8085C92.3657 3.00641 92.6443 3.13105 92.6443 3.38034V4.12821C92.6443 4.37749 92.3657 4.50214 91.8085 4.50214H89.5136V8.21154C89.5136 8.72009 89.5797 9.08654 89.712 9.3109C89.8536 9.53027 90.2125 9.63996 90.7886 9.63996C91.0813 9.63996 91.4119 9.61503 91.7802 9.56517C92.1485 9.51033 92.4365 9.45798 92.6443 9.40812C92.9748 9.32835 93.192 9.38568 93.2959 9.58013L93.7209 10.4327C93.8059 10.6022 93.6831 10.7269 93.3526 10.8066C93.0409 10.8814 92.6112 10.9487 92.0635 11.0085C91.5252 11.0734 90.9822 11.1058 90.4344 11.1058C89.0839 11.1058 87.9318 10.9587 86.978 10.6645C86.0241 10.3704 85.5472 9.7646 85.5472 8.84722V4.50214H84.5839Z" fill="white"/>
<path d="M96.0866 10.3355C95.6238 10.161 95.4963 9.974 95.7041 9.77457L96.4265 9.07906C96.6815 8.82977 97.0782 8.79986 97.6165 8.98932C98.1548 9.17877 98.7875 9.31838 99.5147 9.40812C100.251 9.49786 100.922 9.54274 101.526 9.54274C101.951 9.54274 102.348 9.5203 102.716 9.47543C103.084 9.43056 103.396 9.3433 103.651 9.21368C103.906 9.08405 104.034 8.89459 104.034 8.6453C104.034 8.49573 103.958 8.36859 103.807 8.26389C103.656 8.15919 103.462 8.07942 103.226 8.02457C102.99 7.96973 102.74 7.92486 102.475 7.88996C102.126 7.84509 101.621 7.7703 100.96 7.6656C100.308 7.5609 99.68 7.43875 99.0755 7.29915C98.575 7.18447 98.0839 7.02493 97.6023 6.82051C97.1301 6.61111 96.7807 6.37927 96.554 6.125C96.3368 5.87073 96.2282 5.55662 96.2282 5.18269C96.2282 4.67913 96.5021 4.23789 97.0498 3.85897C97.607 3.48006 98.3248 3.2183 99.203 3.07372C100.081 2.92913 101.177 2.85684 102.49 2.85684C103.377 2.85684 104.241 2.92415 105.082 3.05876C105.922 3.19338 106.522 3.32051 106.881 3.44017C107.448 3.62963 107.589 3.83155 107.306 4.04594L106.442 4.71154C106.177 4.91097 105.752 4.92593 105.167 4.75641C104.723 4.62678 104.284 4.52208 103.849 4.44231C103.424 4.36254 102.948 4.32265 102.419 4.32265C102.06 4.32265 101.715 4.34259 101.385 4.38248C101.054 4.42236 100.771 4.49715 100.535 4.60684C100.308 4.71652 100.195 4.86111 100.195 5.0406C100.195 5.23006 100.299 5.37963 100.506 5.48932C100.724 5.59402 100.969 5.6713 101.243 5.72115C101.526 5.77101 101.795 5.81838 102.05 5.86325C102.579 5.95299 103.113 6.04024 103.651 6.125C104.189 6.20477 104.737 6.30199 105.294 6.41667C105.776 6.51638 106.243 6.65848 106.697 6.84295C107.15 7.02742 107.481 7.26175 107.688 7.54594C107.896 7.83013 108 8.1542 108 8.51816C108 9.00178 107.726 9.4505 107.178 9.86432C106.631 10.2781 105.908 10.5723 105.011 10.7468C104.114 10.9213 103.07 11.0085 101.88 11.0085C100.549 11.0085 99.4155 10.9587 98.4806 10.859C97.5456 10.7593 96.7476 10.5848 96.0866 10.3355Z" fill="white"/>
</svg>
